<?xml version="1.0" encoding="UTF-8"?>
<svg width="103px" height="101px" viewBox="0 0 103 101" version="1.1" xmlns="http://www.w3.org/2000/svg" xmlns:xlink="http://www.w3.org/1999/xlink">
    <!-- Generator: Sketch 43.1 (39012) - http://www.bohemiancoding.com/sketch -->
    <title>Page 1</title>
    <desc>Created with Sketch.</desc>
    <defs>
        <polygon id="path-1" points="102.448 0.3803 102.448 11 0.0004 11 0.0004 0.3803 102.448 0.3803"></polygon>
    </defs>
    <g id="Symbols" stroke="none" stroke-width="1" fill="none" fill-rule="evenodd">
        <g id="care_icon" transform="translate(0.000000, -1.000000)">
            <g id="Page-1">
                <polygon id="Fill-1" fill="#785B8B" points="11.8854 81.8425 0.0004 95.8415 102.4484 95.8415 90.1224 81.8425"></polygon>
                <g id="Group-9" transform="translate(0.000000, 76.152000)">
                    <g id="Group-4" transform="translate(0.000000, 14.000000)">
                        <mask id="mask-2" fill="white">
                            <use xlink:href="#path-1"></use>
                        </mask>
                        <g id="Clip-3"></g>
                        <path d="M102.4484,5.6903 C102.4484,8.6223 79.5144,11.0003 51.2244,11.0003 C22.9334,11.0003 0.0004,8.6223 0.0004,5.6903 C0.0004,2.7583 22.9334,0.3803 51.2244,0.3803 C79.5144,0.3803 102.4484,2.7583 102.4484,5.6903" id="Fill-2" fill="#785B8B" mask="url(#mask-2)"></path>
                    </g>
                    <path d="M90.122,5.9834 C90.122,8.9154 72.608,11.2934 51.004,11.2934 C29.4,11.2934 11.886,8.9154 11.886,5.9834 C11.886,3.0514 29.4,0.6734 51.004,0.6734 C72.608,0.6734 90.122,3.0514 90.122,5.9834" id="Fill-5" fill="#785B8B"></path>
                    <path d="M15.2005,5.0833 C15.2005,5.0833 16.2835,5.3383 18.2145,5.5043 C20.1425,5.7013 22.9105,5.8133 26.2295,5.9393 C29.5505,6.0653 33.4275,6.1033 37.5815,6.1743 C41.7355,6.2433 46.1685,6.2773 50.5985,6.2663 C55.0125,6.2263 59.4585,6.1393 63.6095,6.0493 C67.7645,5.9603 71.6415,5.8783 74.9655,5.8073 C78.2885,5.7053 81.0585,5.6413 82.9915,5.5033 C83.9575,5.4353 84.7175,5.3763 85.2295,5.2953 C85.4865,5.2583 85.6795,5.2123 85.8065,5.1713 C85.9355,5.1313 85.9885,5.0833 85.9885,5.0833 C85.9885,5.0833 85.9385,5.1353 85.8115,5.1843 C85.6865,5.2343 85.4945,5.2943 85.2395,5.3483 C84.7305,5.4613 83.9755,5.5873 83.0095,5.6973 C81.0785,5.9163 78.3135,6.1793 74.9905,6.3703 C71.6675,6.5583 67.7905,6.7853 63.6335,6.9163 C61.5545,6.9793 59.4065,7.0443 57.2245,7.1093 C55.0385,7.1613 52.8175,7.2133 50.5965,7.2653 C46.1575,7.2303 41.7225,7.1513 37.5625,7.0393 C33.4035,6.9293 29.5245,6.7073 26.2015,6.4983 C22.8775,6.2813 20.1155,5.9743 18.1915,5.6963 C16.2625,5.4243 15.2005,5.0833 15.2005,5.0833" id="Fill-7" fill="#FFFFFF"></path>
                </g>
                <g id="Group-80" transform="translate(18.000000, 0.152000)">
                    <path d="M32.4794,60.8878 C32.4794,60.8878 32.9764,52.3668 43.8754,49.3788 C46.4404,49.0978 47.2694,44.1278 47.8004,44.2178 C48.4704,47.1488 51.9564,49.6278 51.9564,49.6278 C51.9564,49.6278 46.6494,49.5188 46.1634,52.2608 C45.8664,53.9338 41.4744,63.1718 32.4794,60.8878" id="Fill-10" fill="#785B8B"></path>
                    <path d="M30.1506,44.8544 C30.1506,44.8544 22.6216,48.0144 14.5156,40.0884 C12.9686,38.0454 8.3016,39.4344 8.1086,38.9494 C10.2696,37.1534 10.6106,33.1754 10.6106,33.1754 C10.6106,33.1754 13.2216,37.6924 15.8106,36.9504 C17.3906,36.4974 27.5176,36.3174 30.1506,44.8544" id="Fill-12" fill="#785B8B"></path>
                    <path d="M45.3671,3.7105 C45.3671,3.7105 46.6211,11.1935 37.8051,18.0825 C35.6471,19.3435 35.9121,23.9225 35.4371,24.0565 C34.2791,21.8165 30.7811,21.0835 30.7811,21.0835 C30.7811,21.0835 35.3831,19.0655 35.2611,16.5285 C35.1871,14.9805 37.1521,5.3355 45.3671,3.7105" id="Fill-14" fill="#785B8B"></path>
                    <path d="M16.2005,48.7972 C16.2005,46.2672 14.1495,44.2162 11.6195,44.2162 C9.0905,44.2162 7.0395,46.2672 7.0395,48.7972 C7.0395,51.3272 9.0905,53.3782 11.6195,53.3782 C14.1495,53.3782 16.2005,51.3272 16.2005,48.7972" id="Fill-16" fill="#785B8B"></path>
                    <path d="M31.8281,50.7535 C31.8281,49.3585 30.6971,48.2275 29.3021,48.2275 C27.9081,48.2275 26.7771,49.3585 26.7771,50.7535 C26.7771,52.1485 27.9081,53.2795 29.3021,53.2795 C30.6971,53.2795 31.8281,52.1485 31.8281,50.7535" id="Fill-18" fill="#785B8B"></path>
                    <path d="M58.5862,38.4769 C58.5862,36.0439 56.6142,34.0709 54.1802,34.0709 C51.7472,34.0709 49.7752,36.0439 49.7752,38.4769 C49.7752,40.9099 51.7472,42.8829 54.1802,42.8829 C56.6142,42.8829 58.5862,40.9099 58.5862,38.4769" id="Fill-20" fill="#785B8B"></path>
                    <path d="M57.0469,60.7402 C57.0469,59.2972 55.8769,58.1272 54.4339,58.1272 C52.9909,58.1272 51.8209,59.2972 51.8209,60.7402 C51.8209,62.1832 52.9909,63.3532 54.4339,63.3532 C55.8769,63.3532 57.0469,62.1832 57.0469,60.7402" id="Fill-22" fill="#785B8B"></path>
                    <path d="M46.5971,24.485 C46.5971,22.55 45.0291,20.982 43.0941,20.982 C41.1591,20.982 39.5911,22.55 39.5911,24.485 C39.5911,26.42 41.1591,27.988 43.0941,27.988 C45.0291,27.988 46.5971,26.42 46.5971,24.485" id="Fill-24" fill="#785B8B"></path>
                    <path d="M50.1002,20.9819 C50.1002,19.0469 48.5322,17.4789 46.5972,17.4789 C44.6622,17.4789 43.0942,19.0469 43.0942,20.9819 C43.0942,22.9169 44.6622,24.4849 46.5972,24.4849 C48.5322,24.4849 50.1002,22.9169 50.1002,20.9819" id="Fill-26" fill="#785B8B"></path>
                    <path d="M50.1002,27.9881 C50.1002,26.0531 48.5322,24.4851 46.5972,24.4851 C44.6622,24.4851 43.0942,26.0531 43.0942,27.9881 C43.0942,29.9231 44.6622,31.4911 46.5972,31.4911 C48.5322,31.4911 50.1002,29.9231 50.1002,27.9881" id="Fill-28" fill="#785B8B"></path>
                    <path d="M53.6033,24.485 C53.6033,22.55 52.0353,20.982 50.1003,20.982 C48.1653,20.982 46.5973,22.55 46.5973,24.485 C46.5973,26.42 48.1653,27.988 50.1003,27.988 C52.0353,27.988 53.6033,26.42 53.6033,24.485" id="Fill-30" fill="#785B8B"></path>
                    <path d="M48.2276,24.1717 C48.1656,23.2707 47.3856,22.5917 46.4846,22.6537 C45.5846,22.7157 44.9046,23.4957 44.9666,24.3957 C45.0286,25.2967 45.8086,25.9767 46.7096,25.9147 C47.6096,25.8527 48.2896,25.0727 48.2276,24.1717" id="Fill-32" fill="#FFFFFF"></path>
                    <path d="M23.5614,27.3556 C23.1534,25.7706 21.5374,24.8156 19.9514,25.2246 C18.3664,25.6326 17.4124,27.2486 17.8204,28.8336 C18.2284,30.4196 19.8444,31.3736 21.4304,30.9656 C23.0154,30.5566 23.9694,28.9406 23.5614,27.3556" id="Fill-34" fill="#785B8B"></path>
                    <path d="M25.6928,23.7459 C25.2848,22.1609 23.6688,21.2059 22.0828,21.6149 C20.4978,22.0229 19.5438,23.6389 19.9518,25.2239 C20.3598,26.8099 21.9758,27.7639 23.5618,27.3559 C25.1468,26.9469 26.1008,25.3309 25.6928,23.7459" id="Fill-36" fill="#785B8B"></path>
                    <path d="M27.1711,29.487 C26.7631,27.902 25.1471,26.947 23.5611,27.356 C21.9761,27.764 21.0221,29.38 21.4301,30.965 C21.8381,32.551 23.4541,33.505 25.0401,33.097 C26.6251,32.688 27.5791,31.072 27.1711,29.487" id="Fill-38" fill="#785B8B"></path>
                    <path d="M29.3025,25.8773 C28.8945,24.2923 27.2785,23.3373 25.6925,23.7463 C24.1075,24.1543 23.1535,25.7703 23.5615,27.3553 C23.9695,28.9413 25.5855,29.8953 27.1715,29.4873 C28.7565,29.0783 29.7105,27.4623 29.3025,25.8773" id="Fill-40" fill="#785B8B"></path>
                    <path d="M24.8313,26.7548 C24.5903,26.0298 23.8073,25.6378 23.0833,25.8788 C22.3583,26.1188 21.9653,26.9018 22.2063,27.6268 C22.4473,28.3518 23.2303,28.7438 23.9553,28.5028 C24.6793,28.2628 25.0723,27.4798 24.8313,26.7548" id="Fill-42" fill="#FFFFFF"></path>
                    <path d="M18.1046,60.021 C19.1566,58.416 18.7076,56.262 17.1026,55.21 C15.4966,54.159 13.3426,54.608 12.2916,56.213 C11.2396,57.818 11.6886,59.972 13.2936,61.023 C14.8996,62.075 17.0526,61.626 18.1046,60.021" id="Fill-44" fill="#785B8B"></path>
                    <path d="M22.9153,59.0185 C23.9673,57.4135 23.5183,55.2595 21.9133,54.2075 C20.3073,53.1565 18.1533,53.6055 17.1023,55.2105 C16.0503,56.8155 16.4993,58.9695 18.1043,60.0205 C19.7103,61.0725 21.8633,60.6235 22.9153,59.0185" id="Fill-46" fill="#785B8B"></path>
                    <path d="M19.1071,64.8317 C20.1591,63.2267 19.7101,61.0727 18.1051,60.0207 C16.4991,58.9697 14.3451,59.4187 13.2941,61.0237 C12.2421,62.6287 12.6911,64.7827 14.2961,65.8337 C15.9021,66.8857 18.0551,66.4367 19.1071,64.8317" id="Fill-48" fill="#785B8B"></path>
                    <path d="M23.9178,63.8292 C24.9698,62.2242 24.5208,60.0702 22.9158,59.0182 C21.3098,57.9672 19.1558,58.4162 18.1048,60.0212 C17.0528,61.6262 17.5018,63.7802 19.1068,64.8312 C20.7128,65.8832 22.8658,65.4342 23.9178,63.8292" id="Fill-50" fill="#785B8B"></path>
                    <path d="M19.6278,60.6473 C20.0658,59.8663 19.7878,58.8783 19.0068,58.4403 C18.2258,58.0023 17.2378,58.2803 16.7998,59.0613 C16.3618,59.8413 16.6398,60.8303 17.4208,61.2683 C18.2018,61.7063 19.1898,61.4283 19.6278,60.6473" id="Fill-52" fill="#FFFFFF"></path>
                    <path d="M38.1047,39.843 C38.1047,38.553 37.0587,37.507 35.7687,37.507 C34.4787,37.507 33.4337,38.553 33.4337,39.843 C33.4337,41.133 34.4787,42.179 35.7687,42.179 C37.0587,42.179 38.1047,41.133 38.1047,39.843" id="Fill-54" fill="#785B8B"></path>
                    <path d="M40.4403,37.5073 C40.4403,36.2173 39.3943,35.1713 38.1043,35.1713 C36.8143,35.1713 35.7693,36.2173 35.7693,37.5073 C35.7693,38.7973 36.8143,39.8433 38.1043,39.8433 C39.3943,39.8433 40.4403,38.7973 40.4403,37.5073" id="Fill-56" fill="#785B8B"></path>
                    <path d="M40.4403,42.1786 C40.4403,40.8886 39.3943,39.8426 38.1043,39.8426 C36.8143,39.8426 35.7693,40.8886 35.7693,42.1786 C35.7693,43.4686 36.8143,44.5146 38.1043,44.5146 C39.3943,44.5146 40.4403,43.4686 40.4403,42.1786" id="Fill-58" fill="#785B8B"></path>
                    <path d="M42.776,39.843 C42.776,38.553 41.73,37.507 40.44,37.507 C39.15,37.507 38.105,38.553 38.105,39.843 C38.105,41.133 39.15,42.179 40.44,42.179 C41.73,42.179 42.776,41.133 42.776,39.843" id="Fill-60" fill="#785B8B"></path>
                    <path d="M39.1918,39.634 C39.1508,39.034 38.6298,38.58 38.0298,38.622 C37.4298,38.663 36.9758,39.183 37.0178,39.784 C37.0588,40.384 37.5788,40.837 38.1798,40.796 C38.7798,40.755 39.2328,40.234 39.1918,39.634" id="Fill-62" fill="#FFFFFF"></path>
                    <path d="M21.2016,5.5361 C19.4166,2.4441 17.1936,0.3851 16.2366,0.9381 C15.2806,1.4901 15.9516,4.4441 17.7366,7.5361 C19.5216,10.6281 21.7446,12.6871 22.7016,12.1351 C23.6586,11.5821 22.9866,8.6281 21.2016,5.5361" id="Fill-64" fill="#785B8B"></path>
                    <path d="M0.6412,65.4415 C0.6412,65.4415 7.6632,62.4905 15.2272,69.8815 C16.6712,71.7865 21.0242,70.4895 21.2042,70.9415 C19.1892,72.6175 18.8732,76.3295 18.8732,76.3295 C18.8732,76.3295 16.4352,72.1165 14.0202,72.8095 C12.5462,73.2325 3.1002,73.4045 0.6412,65.4415" id="Fill-66" fill="#785B8B"></path>
                    <path d="M31.9903,70.5289 C31.1403,69.1649 29.3453,68.7479 27.9813,69.5989 C26.6173,70.4489 26.2003,72.2439 27.0503,73.6079 C27.9003,74.9719 29.6953,75.3889 31.0603,74.5379 C32.4243,73.6879 32.8403,71.8929 31.9903,70.5289" id="Fill-68" fill="#785B8B"></path>
                    <path d="M32.9208,66.5196 C32.0708,65.1556 30.2758,64.7386 28.9118,65.5896 C27.5478,66.4396 27.1308,68.2346 27.9808,69.5986 C28.8308,70.9626 30.6258,71.3796 31.9908,70.5286 C33.3548,69.6786 33.7708,67.8836 32.9208,66.5196" id="Fill-70" fill="#785B8B"></path>
                    <path d="M35.9997,71.4594 C35.1497,70.0954 33.3547,69.6784 31.9907,70.5294 C30.6267,71.3794 30.2097,73.1744 31.0597,74.5384 C31.9097,75.9024 33.7047,76.3194 35.0697,75.4684 C36.4337,74.6184 36.8497,72.8234 35.9997,71.4594" id="Fill-72" fill="#785B8B"></path>
                    <path d="M36.9302,67.45 C36.0802,66.086 34.2852,65.669 32.9212,66.52 C31.5572,67.37 31.1402,69.165 31.9902,70.529 C32.8402,71.893 34.6352,72.31 36.0002,71.459 C37.3642,70.609 37.7802,68.814 36.9302,67.45" id="Fill-74" fill="#785B8B"></path>
                    <path d="M33.0023,69.5915 C32.5633,68.9835 31.7143,68.8475 31.1063,69.2865 C30.4983,69.7265 30.3623,70.5755 30.8013,71.1825 C31.2413,71.7905 32.0903,71.9265 32.6973,71.4875 C33.3053,71.0485 33.4413,70.1995 33.0023,69.5915" id="Fill-76" fill="#FFFFFF"></path>
                    <path d="M53.5052,71.7728 C51.6752,73.6028 49.3572,74.2518 48.3272,73.2218 C47.2972,72.1918 47.9462,69.8728 49.7752,68.0428 C51.6052,66.2138 53.9242,65.5648 54.9542,66.5948 C55.9842,67.6248 55.3352,69.9428 53.5052,71.7728" id="Fill-78" fill="#785B8B"></path>
                </g>
            </g>
        </g>
    </g>
</svg>