<?xml version="1.0" encoding="UTF-8"?>
<svg width="106px" height="107px" viewBox="0 0 106 107" version="1.1" xmlns="http://www.w3.org/2000/svg" xmlns:xlink="http://www.w3.org/1999/xlink">
    <!-- Generator: Sketch 43.1 (39012) - http://www.bohemiancoding.com/sketch -->
    <title>Page 1</title>
    <desc>Created with Sketch.</desc>
    <defs></defs>
    <g id="Symbols" stroke="none" stroke-width="1" fill="none" fill-rule="evenodd">
        <g id="cure_icon" transform="translate(2.000000, -1.000000)">
            <g id="Page-1">
                <g id="Group-3" transform="translate(30.000000, 0.581000)" fill="#785B8B">
                    <path d="M10.658,8.7701 L1.196,7.2761 C0.909,7.2311 0.734,6.6451 0.801,5.9551 L1.218,1.6411 C1.285,0.9511 1.57,0.4091 1.86,0.4191 L11.433,0.7691 C11.733,0.7801 11.924,1.3781 11.854,2.0931 L11.326,7.5511 C11.257,8.2661 10.955,8.8171 10.658,8.7701" id="Fill-1"></path>
                </g>
                <path d="M38.2661,4.2816 L25.1221,4.2816 C25.1221,4.2816 7.3891,4.3496 10.9511,25.5196 C16.7951,70.5246 45.5941,93.7856 45.5941,93.7856" id="Stroke-4" stroke="#785B8B" stroke-width="4"></path>
                <polygon id="Fill-6" fill="#785B8B" points="51.9434 95.0679 45.3624 90.2489 42.2404 94.5129 48.8214 99.3319"></polygon>
                <path d="M57.5692,97.7528 C57.5692,94.2008 54.6892,91.3208 51.1372,91.3208 C47.5852,91.3208 44.7052,94.2008 44.7052,97.7528 C44.7052,101.3048 47.5852,104.1848 51.1372,104.1848 C54.6892,104.1848 57.5692,101.3048 57.5692,97.7528" id="Fill-8" fill="#785B8B"></path>
                <g id="Group-12" transform="translate(60.000000, 0.581000)" fill="#785B8B">
                    <path d="M2.0009,8.7701 L11.4629,7.2761 C11.7499,7.2311 11.9249,6.6451 11.8579,5.9551 L11.4409,1.6411 C11.3739,0.9511 11.0889,0.4091 10.7989,0.4191 L1.2259,0.7691 C0.9259,0.7801 0.7349,1.3781 0.8049,2.0931 L1.3329,7.5511 C1.4019,8.2661 1.7039,8.8171 2.0009,8.7701" id="Fill-10"></path>
                </g>
                <path d="M64.3927,4.2816 L77.5367,4.2816 C77.5367,4.2816 95.2697,4.3496 91.7077,25.5196 C85.8637,70.5246 57.0647,93.7856 57.0647,93.7856" id="Stroke-13" stroke="#785B8B" stroke-width="4"></path>
                <polygon id="Fill-15" fill="#785B8B" points="50.7155 95.0679 57.2965 90.2489 60.4185 94.5129 53.8375 99.3319"></polygon>
                <path d="M47.0919,100.0072 C47.0919,100.0072 4.7119,117.2092 0.4879,91.1732 C-5.9841,51.2712 54.0659,47.6902 54.0659,47.6902 C54.0659,47.6902 125.3969,41.7352 93.5519,78.7022" id="Stroke-17" stroke="#785B8B" stroke-width="4"></path>
                <path d="M102.8698,80.4836 C102.8698,74.5806 98.0838,69.7946 92.1808,69.7946 C86.2768,69.7946 81.4918,74.5806 81.4918,80.4836 C81.4918,86.3866 86.2768,91.1726 92.1808,91.1726 C98.0838,91.1726 102.8698,86.3866 102.8698,80.4836" id="Fill-19" fill="#785B8B"></path>
                <path d="M98.4033,80.4836 C98.4033,77.0466 95.6173,74.2606 92.1803,74.2606 C88.7443,74.2606 85.9583,77.0466 85.9583,80.4836 C85.9583,83.9206 88.7443,86.7066 92.1803,86.7066 C95.6173,86.7066 98.4033,83.9206 98.4033,80.4836 Z" id="Stroke-21" stroke="#FFFFFF" stroke-width="2"></path>
            </g>
        </g>
    </g>
</svg>