<?xml version="1.0" encoding="UTF-8"?>
<svg width="54px" height="54px" viewBox="0 0 54 54" version="1.1" xmlns="http://www.w3.org/2000/svg" xmlns:xlink="http://www.w3.org/1999/xlink">
    <!-- Generator: Sketch 43.1 (39012) - http://www.bohemiancoding.com/sketch -->
    <title>dropdown_lowfi</title>
    <desc>Created with Sketch.</desc>
    <defs>
        <polygon id="path-1" points="3.33333333 -1.02318154e-12 0.748333333 2.585 9.145 11 0.748333333 19.415 3.33333333 22 14.3333333 11"></polygon>
    </defs>
    <g id="Symbols" stroke="none" stroke-width="1" fill="none" fill-rule="evenodd">
        <g id="dropdown_lowfi">
            <g transform="translate(27.000000, 27.000000) rotate(-270.000000) translate(-27.000000, -27.000000) translate(-0.000000, 0.000000)">
                <circle id="Oval-2" fill="#785B8B" cx="27" cy="27" r="27"></circle>
                <g id="Group" transform="translate(21.000000, 16.000000)" stroke-linecap="round" stroke-linejoin="round">
                    <g id="Shape">
                        <use fill="#FFFFFF" fill-rule="evenodd" xlink:href="#path-1"></use>
                        <path stroke="#FFFFFF" stroke-width="2" d="M7.73232614,11 L0.0404558642,18.7086647 L-0.665109541,19.4157707 L0.0412265521,20.1221068 L2.62622655,22.7071068 L3.33333333,23.4142136 L4.04044011,22.7071068 L15.0404401,11.7071068 L15.7475469,11 L15.0404401,10.2928932 L4.04044011,-0.707106781 L3.33333333,-1.41421356 L2.62622655,-0.707106781 L0.0412265521,1.87789322 L-0.665109541,2.58422931 L0.0404558642,3.29133525 L7.73232614,11 Z"></path>
                    </g>
                </g>
            </g>
        </g>
    </g>
</svg>