<?xml version="1.0" encoding="UTF-8"?>
<svg width="110px" height="102px" viewBox="0 0 110 102" version="1.1" xmlns="http://www.w3.org/2000/svg" xmlns:xlink="http://www.w3.org/1999/xlink">
    <!-- Generator: Sketch 43.1 (39012) - http://www.bohemiancoding.com/sketch -->
    <title>grow_icon_2</title>
    <desc>Created with Sketch.</desc>
    <defs>
        <ellipse id="path-1" cx="18" cy="27.9390244" rx="10.9411765" ry="1.06097561"></ellipse>
        <polygon id="path-2" points="2.1336662 8.48780488 33.885238 8.48780488 28.9150084 27.897682 7.05598231 27.897682"></polygon>
        <ellipse id="path-3" cx="18" cy="8.48780488" rx="18" ry="1.41463415"></ellipse>
        <rect id="path-4" x="0" y="1.41463415" width="36" height="7.07317073"></rect>
        <ellipse id="path-5" cx="18" cy="1.41463415" rx="18" ry="1.41463415"></ellipse>
    </defs>
    <g id="Symbols" stroke="none" stroke-width="1" fill="none" fill-rule="evenodd">
        <g id="grow_icon_2">
            <g id="tiesto" transform="translate(37.000000, 71.000000)">
                <g id="Oval-3">
                    <use fill="#785B8B" fill-rule="evenodd" xlink:href="#path-1"></use>
                    <ellipse stroke="#785B8B" stroke-width="1" cx="18" cy="27.9390244" rx="10.4411765" ry="1"></ellipse>
                </g>
                <g id="Rectangle-3">
                    <use fill="#785B8B" fill-rule="evenodd" xlink:href="#path-2"></use>
                    <path stroke="#785B8B" stroke-width="1" d="M2.776293,8.98780488 L33.2410722,8.98780488 L28.5269096,27.397682 L7.44501059,27.397682 L2.776293,8.98780488 Z"></path>
                </g>
                <g id="Oval-3">
                    <use fill="#785B8B" fill-rule="evenodd" xlink:href="#path-3"></use>
                    <ellipse stroke="#785B8B" stroke-width="1" cx="18" cy="8.48780488" rx="17.5" ry="1"></ellipse>
                </g>
                <g id="Rectangle">
                    <use fill="#785B8B" fill-rule="evenodd" xlink:href="#path-4"></use>
                    <rect stroke="#785B8B" stroke-width="1" x="0.5" y="1.91463415" width="35" height="6.07317073"></rect>
                </g>
                <g id="Oval-3">
                    <use fill="#FFFFFF" fill-rule="evenodd" xlink:href="#path-5"></use>
                    <ellipse stroke="#785B8B" stroke-width="1" cx="18" cy="1.41463415" rx="17.5" ry="1"></ellipse>
                </g>
            </g>
            <path d="M55,73.5 L55,3" id="Line" stroke="#785B8B" stroke-width="2" stroke-linecap="round" stroke-linejoin="round"></path>
            <path d="M37.4227781,57.51247 C39.7836141,60.1541847 42.3467485,61.3580521 46.3929978,60.1541847 C50.4392471,58.9503174 50.4392471,58.9635295 50.4392471,58.9635295 C50.4392471,58.9635295 54.1326653,57.9704715 54.1326653,57.51247 C54.1326653,57.0544685 54.1326653,56.3378788 54.1326653,56.3378788 C54.1326653,56.3378788 50.4392471,58.0899718 50.4392471,57.2139253 C50.4392471,56.3378788 51.251588,51.8089483 45.2300875,51 C39.208587,50.1910517 34.7424083,50.181051 34.7424083,50.181051 C34.7424083,50.181051 35.0619421,54.8707552 37.4227781,57.51247 Z M80.3520683,13.2650911 C72.3712042,22.6605338 64.922917,15.1635028 61.5992517,15.8570421 C58.2755863,16.5505814 56.2645075,17.610353 55.2093448,19.0258878 C54.154182,20.4414226 55.0371024,17.7309084 55.2093448,16.8735657 C55.3815871,16.0162231 60.5683607,14.7807212 61.5992517,14.7807212 C62.6301426,14.7807212 61.3404388,4.26750852 71.7581131,2.86796369 C82.1757874,1.46841887 89.7424083,6.42051835 89.7424083,6.42051835 C89.7424083,6.42051835 88.3329324,3.86964838 80.3520683,13.2650911 Z" id="Path-2" fill="#785B8B"></path>
            <path d="M62.4428293,44.9954928 C68.6507137,52.3037018 77.0296355,48.5289245 77.0296355,48.5289245 C77.0296355,48.5289245 82,46.7907688 82,46.1744199 C82,45.5580709 82,44.9954928 82,44.9954928 C82,44.9954928 77.0296355,47.3533469 77.0296355,46.1744199 C77.0296355,44.9954928 77.2309521,37.9967578 69.1276042,36.9081273 C61.0242564,35.8194967 55.1385894,39.6714683 55.1385894,39.6714683 C55.1385894,39.6714683 56.2349448,37.6872839 62.4428293,44.9954928 Z" id="Path-2" fill="#785B8B" transform="translate(68.569295, 43.108909) scale(-1, 1) translate(-68.569295, -43.108909) "></path>
            <path d="M31.6249839,28.4942366 C38.9553707,37.1239073 45.6728061,32.9852614 48.8493593,32.2761689 C52.0259125,31.5670764 54.7184593,35.3971605 54.7184593,33.8903507 C54.7184593,32.3835408 56.7898343,34.6329788 54.7184593,32.6665793 C52.6470842,30.7001798 48.8493593,30.7884553 48.8493593,30.7884553 C48.8493593,30.7884553 49.0870777,20.2299986 39.518492,18.9445231 C29.9499063,17.6590477 23,22.2075282 23,22.2075282 C23,22.2075282 24.2945971,19.8645659 31.6249839,28.4942366 Z" id="Path-2" fill="#785B8B"></path>
        </g>
    </g>
</svg>