<?xml version="1.0" encoding="UTF-8"?>
<svg width="47px" height="43px" viewBox="0 0 47 43" version="1.1" xmlns="http://www.w3.org/2000/svg" xmlns:xlink="http://www.w3.org/1999/xlink">
    <!-- Generator: Sketch 43.1 (39012) - http://www.bohemiancoding.com/sketch -->
    <title>quote</title>
    <desc>Created with Sketch.</desc>
    <defs></defs>
    <g id="Symbols" stroke="none" stroke-width="1" fill="none" fill-rule="evenodd">
        <g id="quote" fill="#785B8B">
            <path d="M43.1875,2 C45.0625094,2 46,2.88540781 46,4.65625 C46,5.59375469 45.6354203,6.32291406 44.90625,6.84375 C39.4895563,10.9062703 36.6250016,15.6458063 36.3125,21.0625 C39.4375156,21.2708344 41.833325,22.2864492 43.5,24.109375 C45.166675,25.9323008 46,28.1718617 46,30.828125 C46,33.4843883 45.0625094,35.776032 43.1875,37.703125 C41.3124906,39.630218 39.0208469,40.59375 36.3125,40.59375 C33.6041531,40.59375 31.2604266,39.5000109 29.28125,37.3125 C27.3020734,35.1249891 26.3125,31.7396062 26.3125,27.15625 C26.3125,22.5728938 27.8749844,17.8854406 31,13.09375 C34.1250156,8.30205938 37.4583156,4.86459375 41,2.78125 C41.8333375,2.26041406 42.5624969,2 43.1875,2 Z M17.875,2 C19.7500094,2 20.6875,2.88540781 20.6875,4.65625 C20.6875,5.59375469 20.3229203,6.32291406 19.59375,6.84375 C14.1770562,10.9062703 11.3125016,15.6458063 11,21.0625 C14.1250156,21.2708344 16.520825,22.2864492 18.1875,24.109375 C19.854175,25.9323008 20.6875,28.1718617 20.6875,30.828125 C20.6875,33.4843883 19.7500094,35.776032 17.875,37.703125 C15.9999906,39.630218 13.7083469,40.59375 11,40.59375 C8.29165312,40.59375 5.94792656,39.5000109 3.96875,37.3125 C1.98957344,35.1249891 1,31.7396062 1,27.15625 C1,22.5728938 2.56248437,17.8854406 5.6875,13.09375 C8.81251562,8.30205938 12.1458156,4.86459375 15.6875,2.78125 C16.5208375,2.26041406 17.2499969,2 17.875,2 Z" id="“"></path>
        </g>
    </g>
</svg>